<?xml version="1.0" encoding="utf-8"?>
<!-- Generator: Adobe Illustrator 22.0.1, SVG Export Plug-In . SVG Version: 6.00 Build 0)  -->
<svg version="1.1" id="Layer_1" xmlns="http://www.w3.org/2000/svg" xmlns:xlink="http://www.w3.org/1999/xlink" x="0px" y="0px"
	 viewBox="0 0 841.9 595.3" style="enable-background:new 0 0 841.9 595.3;" xml:space="preserve">
<style type="text/css">
	.st0{fill:#5A391A;}
	.st1{fill:#14743B;}
</style>
<g>
	<g>
		<g>
			<g>
				<path class="st0" d="M564.9,224.4c-0.1-0.1-0.3-0.2-0.5-0.1l0,0c-4.9,3.5-10.4,6-16,8.1c-5.6,2.1-11.5,3.6-17.3,4.8
					c-11.8,2.4-23.8,3.1-35.7,2.8c-23.9-0.7-47.7-5.2-70.6-12.2c-23.2-6.9-47.1-13.2-71.7-15.5c-11.4-1-22.9-1.2-34.5-0.1
					c0-0.7,0-1.4,0-1.9c-0.2-1.7-0.8-2.9-1.9-3.5c-1.1-0.6-2.3-0.8-3.5-0.6c-1.2,0.3-2.4,1-3.4,2.1c-1,1.1-1.6,2.7-1.7,4.6
					c0,0.2,0,0.4,0,0.6l-1.8,0.3c-3.1,0.5-6.2,1.5-9.3,2.3c-3.1,1-6.1,2-9.1,3.4c-1.5,0.6-3,1.5-4.5,2.2c-1.5,0.9-2.8,1.6-4.6,3.1
					l0,0c-2.2,1.8-2.6,5-0.8,7.2c1.8,2.2,5,2.6,7.2,0.8l0.3-0.2c0.5-0.4,1.9-1.3,2.9-1.9c1.2-0.6,2.4-1.3,3.7-1.8
					c2.5-1.2,5.2-2.1,7.9-3c2.8-0.7,5.5-1.6,8.3-2.1l0.3-0.1c0.3,7.2,0.4,13.9,0.3,19.9c-0.2,8.9-0.4,22.3-0.5,28.6
					c-0.2,6.3-0.1,11.3,0.2,15.1c0.3,3.8,1.2,6.5,2.8,8c0.8,0.3,1.6,0.4,2.5,0.2c0.9-0.2,1.8-0.5,2.6-1c0.8-0.5,1.5-1.1,2.1-1.8
					c0.6-0.7,0.9-1.4,0.9-2.2c-0.5-2.4-0.8-5.8-1-9.9c-0.2-4.2-0.3-8.7-0.3-13.7c0-5,0-16,0-21.2c0-5.3,0.1-10.3,0.2-15
					c0-3,0.1-5.8,0.1-8.4c11.1-1.3,22.5-1.4,33.8-0.6c3,0.2,5.9,0.6,8.9,0.9c3,0.3,5.9,0.5,8.9,1c5.9,1,11.8,1.6,17.7,3
					c11.8,2.2,23.2,5.5,35.1,8.3c23.6,6.2,48.1,10,72.6,9.6c12.2-0.4,24.5-1.6,36.4-4.7c5.9-1.6,11.8-3.4,17.3-6
					c5.6-2.4,11-5.3,15.8-9.2C565,224.7,565,224.5,564.9,224.4z"/>
				<path class="st0" d="M349.7,280.1c0-2.6,0-5.2-0.1-7.9c-0.1-2.7-0.4-5.2-0.8-7.6c-0.5-2.4-1.1-4.4-2-6.2c-0.9-1.8-2.1-3-3.7-3.7
					c-1-0.5-2-0.6-3-0.5c-0.9,0.1-1.9,0.4-2.8,0.9c-0.9,0.5-1.8,1.1-2.7,1.9c-0.9,0.8-1.7,1.7-2.6,2.7c-0.4-3.8-0.5-7.6-0.3-11.4
					c0.2-3.7,0.3-7.7,0.3-11.9c-0.2-0.9-0.7-1.5-1.5-1.8c-0.8-0.3-1.6-0.3-2.5-0.2c-0.9,0.2-1.7,0.5-2.4,1c-0.7,0.5-1.1,1.1-1.2,1.8
					l1,56.9c-0.3,0.5-0.1,0.9,0.4,1.2c0.6,0.4,1.3,0.6,2.2,0.6s1.9-0.2,2.8-0.7c0.9-0.5,1.7-1.3,2.2-2.5c0-1.3,0-2.8-0.1-4.5
					c-0.1-1.8-0.1-3.6,0-5.5c0-1.9,0.1-3.9,0.3-5.9c0.1-2,0.4-3.8,0.8-5.6c0.4-1.7,0.9-3.2,1.6-4.5c0.7-1.3,1.5-2.2,2.5-2.8
					c1.6-0.2,2.7,0.5,3.3,2.1c0.6,1.6,0.9,3.7,1,6.4s0,5.9-0.2,9.5c-0.2,3.6-0.3,7.4-0.4,11.4c0.3,0.7,0.9,1.3,1.7,1.7
					c0.8,0.5,1.6,0.7,2.4,0.8c0.8,0.1,1.6-0.1,2.4-0.6c0.7-0.5,1.3-1.3,1.6-2.5c-0.2-1.4-0.3-3.2-0.3-5.4
					C349.7,285.1,349.7,282.7,349.7,280.1z"/>
				<path class="st0" d="M374.4,279c-0.9,0-1.5,0.2-1.9,0.6c-0.4,0.4-0.7,0.9-0.9,1.6c-0.2,0.6-0.4,1.3-0.5,2
					c-0.1,0.7-0.3,1.3-0.5,2c-0.2,0.6-0.6,1.1-1,1.6c-0.5,0.4-1.1,0.6-2,0.6c-0.9-0.1-1.7-0.6-2.4-1.7c-0.7-1.1-1.3-2.4-1.8-4
					c-0.5-1.6-0.8-3.4-0.9-5.4c-0.1-2,0-4,0.3-6c0.7-0.3,1.6-0.5,2.6-0.5c1.1-0.1,2.2-0.2,3.4-0.3c1.2-0.2,2.4-0.5,3.6-0.9
					c1.2-0.4,2.3-1.1,3.1-2.1c0.9-1,1.6-2.3,2-4c0.4-1.7,0.5-3.9,0.2-6.6c-0.6-2-1.5-3.6-2.7-4.8c-1.2-1.2-2.6-2-4.1-2.4
					c-1.6-0.4-3.1-0.3-4.8,0.2c-1.6,0.5-3.2,1.4-4.7,2.8c-1.5,1.4-2.8,3.3-3.9,5.6c-1.1,2.3-1.8,5.2-2.2,8.5
					c-0.1,1.1-0.2,2.7-0.3,4.5c-0.1,1.9-0.1,3.9,0,6c0.1,2.1,0.4,4.3,0.8,6.5c0.4,2.2,1.1,4.2,2.1,6c0.9,1.8,2.2,3.3,3.7,4.5
					c1.6,1.2,3.5,1.9,5.9,2.1c1.4,0,2.8-0.3,4.1-1c1.3-0.7,2.4-1.6,3.4-2.7c1-1.1,1.8-2.5,2.4-3.9c0.6-1.5,0.9-3,0.9-4.6
					c0-1.2-0.4-2.2-1.1-2.9C376.6,279.3,375.6,279,374.4,279z M366.1,257c0.8-0.7,1.6-1,2.4-0.9c0.8,0.1,1.5,0.5,2.1,1.2
					c0.6,0.7,0.9,1.5,1,2.3c-0.2,0.6-0.6,1-1.4,1.4c-0.8,0.3-1.6,0.6-2.5,0.7c-0.9,0.1-1.6,0.1-2.3,0c-0.7-0.1-1-0.3-1-0.7
					C364.7,259,365.3,257.7,366.1,257z"/>
			</g>
			<g>
				<path class="st1" d="M533.2,207.7c-4.9,3.3-8.1,8.8-8.4,15c1.7,0.6,3.2,1.5,4.6,2.6c3.7,3,6,7.5,6.2,12.2
					c3.7-3.5,6.1-8.4,6.1-14C541.7,217,538.3,211.2,533.2,207.7z"/>
				
					<ellipse transform="matrix(0.6263 -0.7796 0.7796 0.6263 14.9127 495.271)" class="st1" cx="524.1" cy="232.1" rx="6.2" ry="11.7"/>
			</g>
		</g>
		<g>
			<path class="st1" d="M460.4,338.3c-3.5-0.5-6.3-1.8-8.3-3.9c-2-2.1-3.5-4.7-4.5-7.8c-1-3.1-1.6-6.6-1.8-10.5
				c-0.2-3.8-0.3-5.6-0.3-9.7s0-8.2,0.1-12.2s-0.1-7.8-0.6-11.2c0.1-1.4,0.7-2.5,1.7-3.1s2.3-1,3.6-0.9s2.5,0.5,3.6,1.2
				s1.8,1.7,1.9,2.9c0.1,2.8,0.2,5.9,0.1,9.2c-0.1,3.3-0.2,6.6-0.4,9.9c-0.1,3.3-0.2,4.3-0.2,7.4s0.1,5.9,0.4,8.4
				c0.3,2.5,0.8,4.6,1.6,6.3c0.8,1.7,1.9,2.8,3.4,3.2c2.4-1.2,4.2-3.3,5.4-6.3c1.2-3,2.1-6.4,2.5-10.4c0.4-3.9,0.6-5.9,0.3-10.4
				s-0.6-8.7-1.1-12.7c0-0.7,0-1.4,0.1-2.3c0.1-0.9,0.2-1.7,0.4-2.5c0.2-0.8,0.6-1.5,1.1-2.2c0.5-0.7,1.2-1.1,2.1-1.3
				c1.6-0.4,2.9-0.4,3.9,0.3c1,0.6,1.9,1.5,2.6,2.7c0.7,1.2,1.2,2.4,1.5,3.8c0.3,1.3,0.4,2.5,0.4,3.5c-0.1,3.1-0.2,6.8-0.2,11.1
				c0,4.3,0.1,6.3,0.3,10.6c0.2,4.3,0.4,8.3,0.8,12c0.3,3.7,0.7,6.6,1.1,8.6c0,1.7-0.6,2.9-1.8,3.6c-1.2,0.7-2.6,1.1-4.1,1.1
				c-0.7,0-1.5-0.1-2.2-0.4c-0.7-0.3-1.4-0.7-2.1-1.2c-0.6-0.5-1.1-1.1-1.5-1.8c-0.4-0.7-0.6-1.5-0.6-2.3c-0.7,1-1.4,1.9-2.1,2.8
				s-1.3,1.7-2,2.4c-0.7,0.7-1.4,1.2-2.3,1.6C462.6,338.1,461.6,338.3,460.4,338.3z"/>
			<path class="st1" d="M512.2,324.8c-0.2,1.3-0.7,2.7-1.3,4.1c-0.7,1.4-1.6,2.7-2.7,3.9s-2.5,2.2-4.1,2.9c-1.6,0.7-3.4,1-5.4,0.9
				c-2.2-0.3-4.1-1.4-5.6-3.2c-1.5-1.8-2.7-4.1-3.5-6.9c-0.9-2.8-1.3-5.8-1.5-9.2c-0.1-3.4,0.1-6.8,0.6-10.1
				c0.5-3.4,1.4-6.6,2.6-9.6c1.2-3.1,2.8-5.6,4.7-7.7c1.9-2.1,4.1-3.5,6.7-4.3c2.6-0.8,5.5-0.6,8.8,0.6l-0.2-25.5
				c0-1,0.5-1.9,1.4-2.7c0.9-0.7,2-1.2,3.1-1.3c1.2-0.1,2.3,0.1,3.4,0.7c1.1,0.6,1.9,1.6,2.4,3.1c0.1,6.5,0.1,12.3,0.1,17.4
				c0,5.1,0,9.7-0.1,13.9c0,4.1-0.1,7.9-0.1,11.4c0,3.4,0,6.7,0,9.9c0,3.2,0.1,6.3,0.2,9.4c0.1,3.1,0.3,6.4,0.6,9.9
				c0.2,1.8-0.2,3.2-1.3,4.3c-1.1,1-2.3,1.7-3.6,1.9c-1.3,0.2-2.6,0.1-3.7-0.4c-1.1-0.5-1.6-1.5-1.5-2.8V324.8z M507.8,297.4
				c-1.6-1.3-3-1.4-4.4-0.5c-1.3,0.9-2.5,2.5-3.5,4.6c-1,2.2-1.8,4.7-2.3,7.5c-0.6,2.8-0.8,5.5-0.7,8.1c0.1,2.5,0.5,4.7,1.2,6.4
				c0.7,1.8,2,2.6,3.7,2.5c1,0,1.9-0.6,2.8-1.8c0.9-1.2,1.7-2.8,2.4-4.6c0.7-1.8,1.3-3.9,1.8-6.2c0.5-2.3,0.8-4.5,0.9-6.6
				c0.1-2.1,0-4-0.3-5.7C509.1,299.5,508.6,298.3,507.8,297.4z"/>
			<path class="st1" d="M528.3,266.5c0.1-1.6,0.7-2.8,2-3.7c1.2-0.9,2.6-1.4,4-1.4c1.5,0,2.8,0.4,4.1,1.2c1.3,0.9,1.9,2.2,2,4.1
				c-0.1,2.2-0.7,3.9-1.9,5.1c-1.2,1.2-2.5,1.7-4,1.7c-1.5,0-2.8-0.6-4-1.7C529.2,270.6,528.5,268.9,528.3,266.5z M530.5,329.8
				c0.4-2.7,0.5-6,0.4-9.8c-0.1-3.8-0.2-7.8-0.5-12c-0.3-4.1-0.5-8.3-0.8-12.3c-0.3-4.1-0.4-6.6-0.4-9.8c-0.1-2.6,0.3-4.4,1.4-5.5
				c1.1-1,2.3-1.4,3.6-1.2c1.3,0.3,2.5,1.1,3.5,2.6c1,1.5,1.5,3.3,1.2,5.7c0.1,3.4,0.3,5.9,0.5,9.8c0.2,3.9,0.4,7.9,0.6,11.8
				c0.2,4,0.4,7.8,0.7,11.6c0.3,3.8,0.5,7.3,0.7,10.5c-0.4,2.1-1.2,3.6-2.4,4.4c-1.2,0.9-2.4,1.2-3.7,1.1s-2.4-0.8-3.4-2
				C530.9,333.5,530.4,331.9,530.5,329.8z"/>
			<path class="st1" d="M547.3,261.8c0.1-1.9,0.6-3.4,1.6-4.5c1-1.1,2.1-1.8,3.3-2.1c1.2-0.3,2.3-0.1,3.4,0.6
				c1.1,0.6,1.7,1.8,1.8,3.4c0,1.6,0,4.2-0.1,7.7c0,3.5-0.1,7.6-0.2,12.2c-0.1,4.6-0.1,9.5-0.2,14.6s0,10.2,0,15s0.1,9.3,0.3,13.4
				c0.2,4.1,0.5,7.3,1,9.7c0,0.7-0.3,1.5-0.8,2.1c-0.6,0.7-1.2,1.3-2,1.7c-0.8,0.5-1.6,0.8-2.5,1c-0.9,0.2-1.7,0.1-2.5-0.2
				c-1.6-1.5-2.5-4.1-2.7-7.8c-0.3-3.7-0.3-8.6-0.2-14.7c0.1-6.1,0.3-13.5,0.5-22.2C548.3,283.2,548.1,273.2,547.3,261.8z"/>
			<g>
				<path class="st1" d="M452.7,247.6c-1.1-1.3-3.1-2-5.9-2c-2.2,0-4.2,0.6-6,1.9c-1.8,1.2-3.4,3-4.9,5.4c0,0-22.9,33.9-22.9,33.9
					l-8.6,12.7c0-0.5-0.1-1.1-0.1-1.6c-0.2-3.9-0.4-7.4-0.5-10.8c0.2-2.3-0.2-4.1-1.2-5.6c-1-1.4-2.2-2.3-3.5-2.5
					c-1.3-0.3-2.5,0.1-3.5,1.2c-1.1,1-1.5,2.8-1.4,5.4c0,3.2,0.2,6.7,0.5,10.8c0.3,4,0.6,8.1,0.8,12.1c0.3,4.1,0.4,8,0.5,11.8
					c0.1,3.8-0.1,7-0.4,9.7c-0.1,2.1,0.4,3.7,1.4,4.9c1,1.2,2.1,1.8,3.4,2c1.3,0.1,2.5-0.2,3.6-1c2-1.4,2.3-3.9,2.2-6.1
					c-0.2-2.9-0.4-5.7-0.6-8.6c-0.1-0.8-0.1-1.6-0.1-2.3l20.8,23.7c4.5,5.1,8,8.5,10.4,10.2c2.5,1.7,4.6,2.5,6.4,2.5
					c2.1,0,3.7-0.5,4.7-1.6c1-1.1,1.5-2.4,1.5-4c0-0.6-0.1-1.3-0.3-1.9c-0.2-0.6-0.7-1.5-1.4-2.6c-0.7-1.1-1.7-2.5-3.1-4.2
					c-1.4-1.7-3.3-3.8-5.6-6.3l-16.6-18c-3.3-3.6-3.7-9-0.9-13l30.3-43.2c0.9-1.2,1.5-2.4,2-3.7c0.5-1.3,0.7-2.5,0.7-3.7
					C454.4,250.6,453.8,248.9,452.7,247.6z"/>
			</g>
		</g>
	</g>
	<g>
		<path class="st0" d="M329.4,371.9h-1.8l-4,12h2l1-3.2h3.9l1,3.2h2l-4-11.8L329.4,371.9z M329.8,378.9h-2.7l1.3-4.1L329.8,378.9z"
			/>
		<polygon class="st0" points="347.5,383.9 349.4,383.9 349.4,379.3 352.6,379.3 352.6,377.5 349.4,377.5 349.4,373.8 354.7,373.8 
			354.7,371.9 347.5,371.9 		"/>
		<path class="st0" d="M364.5,375.6c-0.3-0.2-0.5-0.3-0.5-0.3c-1.5-0.8-3.1-0.8-4.6,0c-0.7,0.4-1.3,1-1.8,1.7
			c-0.4,0.7-0.6,1.5-0.6,2.4c0,0.8,0.2,1.6,0.6,2.3c0.4,0.7,1,1.3,1.7,1.7c0.7,0.4,1.5,0.6,2.3,0.6c0.8,0,1.6-0.2,2.4-0.6
			c0,0,0.2-0.1,0.5-0.3v0.8h1.9v-9.1h-1.9V375.6z M364.3,378c0.3,0.5,0.4,0.9,0.4,1.4c0,0.5-0.1,1-0.4,1.4c-0.2,0.4-0.6,0.8-1,1
			c-0.9,0.5-1.9,0.5-2.8,0c-0.4-0.2-0.8-0.6-1-1c-0.2-0.4-0.4-0.9-0.4-1.4c0-0.5,0.1-1,0.4-1.4c0.3-0.5,0.6-0.8,1-1
			c0.5-0.2,0.9-0.4,1.4-0.4c0.5,0,1,0.1,1.4,0.4C363.7,377.2,364,377.5,364.3,378z"/>
		<path class="st0" d="M382.7,375.2c-1.3-0.7-2.7-0.7-3.9,0c-0.3,0.2-0.7,0.5-1.1,0.9c-0.4-0.4-0.8-0.7-1.1-0.9
			c-0.6-0.3-1.3-0.5-2-0.5c-0.5,0-1.2,0.2-2.1,0.6v-0.5h-1.9v9.1h1.9v-5.3c0-0.4,0.1-0.7,0.3-1.1c0.2-0.3,0.4-0.6,0.8-0.8
			c0.7-0.4,1.4-0.4,2.1,0c0.3,0.2,0.6,0.4,0.8,0.8c0.2,0.3,0.3,0.7,0.3,1.1v5.2h1.9v-5.2c0-0.4,0.1-0.7,0.3-1.1
			c0.2-0.3,0.4-0.6,0.8-0.8c0.7-0.4,1.4-0.4,2.1,0c0.3,0.2,0.6,0.4,0.8,0.8c0.2,0.4,0.3,0.7,0.3,1.1v5.2h1.9v-5.5
			c0-0.6-0.2-1.2-0.5-1.8C383.8,376,383.3,375.5,382.7,375.2z"/>
		<rect x="389.4" y="374.8" class="st0" width="1.9" height="9.1"/>
		<path class="st0" d="M391,370.6c-0.4-0.2-0.9-0.2-1.4,0c-0.2,0.1-0.4,0.3-0.5,0.5c-0.1,0.2-0.2,0.5-0.2,0.7c0,0.2,0.1,0.5,0.2,0.7
			c0.1,0.2,0.3,0.4,0.5,0.5c0.2,0.1,0.5,0.2,0.7,0.2c0.2,0,0.5-0.1,0.7-0.2c0.2-0.1,0.4-0.3,0.5-0.5c0.1-0.2,0.2-0.5,0.2-0.7
			c0-0.2-0.1-0.5-0.2-0.7C391.4,370.9,391.2,370.8,391,370.6z"/>
		<rect x="395.9" y="371.9" class="st0" width="1.9" height="12"/>
		<path class="st0" d="M408.2,380.1c0,0.4-0.1,0.7-0.3,1.1c-0.2,0.3-0.5,0.6-0.8,0.8c-0.7,0.4-1.4,0.4-2.1,0
			c-0.3-0.2-0.6-0.4-0.8-0.8s-0.3-0.7-0.3-1.1v-5.2H402v5.5c0,0.6,0.2,1.2,0.5,1.8c0.4,0.6,0.9,1.1,1.5,1.5c0.6,0.3,1.3,0.5,2,0.5
			c0.5,0,1.2-0.2,2.1-0.6l0,1.4c0,0,0,0.3-0.4,0.9c-0.2,0.4-0.6,0.8-1,1c-0.9,0.5-1.9,0.5-2.8,0l-0.2-0.1l-1.6,1.1l0.3,0.3
			c0,0,0.1,0.1,0.6,0.4c0.7,0.4,1.5,0.6,2.3,0.6c0.8,0,1.6-0.2,2.3-0.6c0.7-0.4,1.3-1,1.7-1.7c0.4-0.7,0.6-1.7,0.6-2.8v-9.1h-1.9
			V380.1z"/>
		<path class="st0" d="M432.1,377.4c0.3-0.6,0.5-1.2,0.5-1.8c0-0.6-0.2-1.3-0.5-1.9c-0.3-0.6-0.8-1.1-1.4-1.4
			c-0.6-0.3-1.2-0.5-1.8-0.5h-4.6v12h1.9v-4.6h1.5l2.6,4.6h2.2l-2.7-4.7c0.5-0.2,0.8-0.3,1-0.4C431.3,378.5,431.8,378,432.1,377.4z
			 M430.7,375.6c0,0.3-0.1,0.6-0.2,0.9c-0.2,0.3-0.4,0.5-0.7,0.7c-0.3,0.2-0.6,0.2-0.9,0.2h-2.8v-3.6h2.8c0.3,0,0.6,0.1,0.9,0.2
			c0.3,0.2,0.5,0.4,0.7,0.7C430.6,375,430.7,375.3,430.7,375.6z"/>
		<path class="st0" d="M445,377.7c0-0.1-0.1-0.2-0.4-0.7c-0.4-0.7-1-1.3-1.7-1.7c-0.4-0.2-0.7-0.4-1.1-0.5c-0.4-0.1-0.8-0.2-1.2-0.2
			h-0.1c-0.8,0-1.6,0.2-2.3,0.6c-0.7,0.4-1.3,1-1.7,1.7c-0.4,0.7-0.7,1.5-0.7,2.4c0,0.9,0.2,1.6,0.6,2.4c0.4,0.7,1,1.3,1.7,1.7
			c0.7,0.4,1.5,0.6,2.3,0.6h0.1c0.8,0,1.6-0.2,2.3-0.6c0.7-0.4,1.3-1,1.7-1.7c0.3-0.5,0.3-0.6,0.3-0.6l0.1-0.3l-1.7-0.5l-0.3,0.5
			c-0.3,0.4-0.6,0.8-1,1c-0.4,0.2-0.9,0.4-1.4,0.4c-0.4,0-1-0.2-1.7-0.6l6.2-3.7L445,377.7z M442.6,377.4l-4.7,2.7
			c-0.1-0.4-0.1-0.7-0.1-0.8c0-0.5,0.1-1,0.4-1.4c0.3-0.4,0.6-0.8,1-1c0.4-0.2,0.9-0.4,1.4-0.4h0.4l0.3,0.1c0.1,0,0.2,0,0.7,0.3
			C442,377,442.2,377.1,442.6,377.4z"/>
		<path class="st0" d="M455.7,378.4c-0.5-0.3-0.9-0.4-1.4-0.4h-2.1c-0.1,0-0.3,0-0.4-0.1c-0.1-0.1-0.2-0.2-0.3-0.3
			c-0.1-0.1-0.1-0.2-0.1-0.4c0-0.1,0-0.3,0.1-0.4c0.1-0.1,0.2-0.2,0.3-0.3c0.1-0.1,0.3-0.1,0.4-0.1h1.8c0.1,0,0.1,0,0.2,0
			c0.1,0,0.1,0,0.2,0.1c0.1,0.1,0.2,0.2,0.3,0.3l0.1,0.1l1.8,0v-0.3c0-0.1,0-0.2-0.3-0.8c-0.2-0.4-0.6-0.7-1-0.9
			c-0.4-0.2-0.8-0.3-1.3-0.3h-1.8c-0.4,0-0.8,0.1-1.3,0.3c-0.4,0.2-0.7,0.5-1,1c-0.2,0.4-0.4,0.8-0.4,1.3c0,0.4,0.1,0.9,0.3,1.3
			c0.2,0.4,0.5,0.7,1,1c0.4,0.2,0.8,0.3,1.3,0.3h2.1c0.2,0,0.4,0.1,0.6,0.2c0.2,0.1,0.3,0.3,0.4,0.4c0.1,0.2,0.2,0.4,0.2,0.6
			c0,0.2-0.1,0.4-0.2,0.6c-0.1,0.2-0.2,0.3-0.4,0.4c-0.2,0.1-0.4,0.2-0.6,0.2h-1.9c-0.2,0-0.4-0.1-0.6-0.2c-0.2-0.1-0.3-0.2-0.4-0.4
			c-0.1-0.2-0.2-0.4-0.2-0.6v-0.3h-1.8v0.3c0,0.5,0.1,1,0.4,1.5c0.3,0.5,0.7,0.9,1.1,1.1c0.5,0.3,1,0.4,1.5,0.4h1.9
			c0.5,0,1-0.1,1.5-0.4c0.5-0.3,0.9-0.6,1.1-1.1c0.3-0.5,0.4-1,0.4-1.5c0-0.5-0.1-1-0.4-1.5C456.5,379.1,456.1,378.7,455.7,378.4z"
			/>
		<path class="st0" d="M467.4,381.8c-0.7,0.4-1.4,0.4-2.1,0c-0.3-0.2-0.6-0.4-0.8-0.8c-0.2-0.3-0.3-0.7-0.3-1.1v-3.2h2.9v-1.9h-2.9
			v-2.9h-1.9v2.9h-0.9v1.9h0.9v3.3c0,0.7,0.2,1.4,0.5,2c0.4,0.6,0.9,1.1,1.5,1.5c0.6,0.3,1.3,0.5,2,0.5c0.7,0,1.3-0.2,2-0.5
			c0.5-0.3,0.7-0.4,0.7-0.4l0.2-0.2l-1.2-1.2L467.4,381.8z"/>
		<path class="st0" d="M479.2,375.6c-0.3-0.2-0.5-0.3-0.5-0.3c-1.5-0.8-3.1-0.8-4.6,0c-0.7,0.4-1.3,1-1.8,1.7
			c-0.4,0.7-0.6,1.5-0.6,2.4c0,0.8,0.2,1.6,0.6,2.3c0.4,0.7,1,1.3,1.7,1.7c0.7,0.4,1.5,0.6,2.3,0.6c0.8,0,1.6-0.2,2.4-0.6
			c0,0,0.2-0.1,0.5-0.3v0.8h1.9v-9.1h-1.9V375.6z M479,378c0.3,0.5,0.4,0.9,0.4,1.4c0,0.5-0.1,1-0.4,1.4c-0.2,0.4-0.6,0.8-1,1
			c-0.9,0.5-1.9,0.5-2.8,0c-0.4-0.2-0.8-0.6-1-1c-0.2-0.4-0.4-0.9-0.4-1.4c0-0.5,0.1-1,0.4-1.4c0.3-0.5,0.6-0.8,1-1
			c0.5-0.2,0.9-0.4,1.4-0.4c0.5,0,1,0.1,1.4,0.4C478.4,377.2,478.7,377.5,479,378z"/>
		<path class="st0" d="M491.4,380.1c0,0.4-0.1,0.7-0.3,1.1c-0.2,0.3-0.5,0.6-0.8,0.8c-0.7,0.4-1.4,0.4-2.1,0
			c-0.3-0.2-0.6-0.4-0.8-0.8s-0.3-0.7-0.3-1.1v-5.2h-1.9v5.5c0,0.6,0.2,1.2,0.5,1.8c0.4,0.6,0.9,1.1,1.5,1.5c0.6,0.3,1.3,0.5,2,0.5
			c0.5,0,1.2-0.2,2.1-0.6v0.5h1.9v-9.1h-1.9V380.1z"/>
		<path class="st0" d="M504.5,375.3c-1.5-0.8-3.1-0.8-4.6,0c0,0-0.1,0-0.5,0.3v-0.8h-1.9v9.1h1.9v-4.5c0-0.5,0.1-1,0.4-1.4
			c0.2-0.5,0.6-0.8,1-1c0.9-0.5,1.9-0.5,2.8,0l0.5,0.2l1.3-1.3l-0.2-0.2C505.2,375.6,505.1,375.6,504.5,375.3z"/>
		<path class="st0" d="M515.6,375.6c-0.3-0.2-0.5-0.3-0.5-0.3c-1.5-0.8-3.1-0.8-4.6,0c-0.7,0.4-1.3,1-1.8,1.7
			c-0.4,0.7-0.6,1.5-0.6,2.4c0,0.8,0.2,1.6,0.6,2.3c0.4,0.7,1,1.3,1.7,1.7c0.7,0.4,1.5,0.6,2.3,0.6c0.8,0,1.6-0.2,2.4-0.6
			c0,0,0.2-0.1,0.5-0.3v0.8h1.9v-9.1h-1.9V375.6z M515.4,378c0.3,0.5,0.4,0.9,0.4,1.4c0,0.5-0.1,1-0.4,1.4c-0.2,0.4-0.6,0.8-1,1
			c-0.9,0.5-1.9,0.5-2.8,0c-0.4-0.2-0.8-0.6-1-1c-0.2-0.4-0.4-0.9-0.4-1.4c0-0.5,0.1-1,0.4-1.4c0.3-0.5,0.6-0.8,1-1
			c0.5-0.2,0.9-0.4,1.4-0.4c0.5,0,1,0.1,1.4,0.4C514.8,377.2,515.1,377.5,515.4,378z"/>
		<path class="st0" d="M527.7,375.2c-0.6-0.3-1.3-0.5-2-0.5c-0.5,0-1.2,0.2-2.1,0.6v-0.5h-1.9v9.1h1.9v-5.3c0-0.4,0.1-0.7,0.3-1.1
			c0.2-0.3,0.4-0.6,0.8-0.8c0.7-0.4,1.4-0.4,2.1,0c0.3,0.2,0.6,0.4,0.8,0.8c0.2,0.3,0.3,0.7,0.3,1.1v5.2h1.9v-5.5
			c0-0.6-0.2-1.2-0.5-1.8C528.8,376,528.3,375.5,527.7,375.2z"/>
		<path class="st0" d="M540.5,381.5l-0.6,0.2c-0.7,0.4-1.4,0.4-2.1,0c-0.3-0.2-0.6-0.4-0.8-0.8c-0.2-0.3-0.3-0.7-0.3-1.1v-3.2h2.9
			v-1.9h-2.9v-2.9h-1.9v2.9h-0.9v1.9h0.9v3.3c0,0.7,0.2,1.4,0.5,2c0.4,0.6,0.9,1.1,1.5,1.5c0.6,0.3,1.3,0.5,2,0.5
			c0.7,0,1.3-0.2,2-0.5c0.5-0.3,0.7-0.4,0.7-0.4l0.2-0.2L540.5,381.5z"/>
	</g>
</g>
</svg>
